<svg id="Capa_1" data-name="Capa 1" xmlns="http://www.w3.org/2000/svg" xmlns:xlink="http://www.w3.org/1999/xlink" viewBox="0 0 195.42 85.37">
  <defs>
    <style>.cls-1,.cls-2{fill:none;}.cls-2{stroke:#70a64f;stroke-miterlimit:3.86;stroke-width:0.37px;}.cls-3{fill:#70a64f;}.cls-10,.cls-3,.cls-4,.cls-7,.cls-8{fill-rule:evenodd;}.cls-4{fill:#345b82;}.cls-5{clip-path:url(#clip-path);}.cls-6{fill:url(#Degradado_sin_nombre_2);}.cls-7{fill:#467676;}.cls-8{fill:#3c6a7e;}.cls-9{fill:#53836c;}.cls-10{fill:#5d8f5d;}.cls-11{fill:#3a5c82;}</style>
    <clipPath id="clip-path" transform="translate(0.06)">
      <path class="cls-1" d="M9,21.35l0.85-5.07A16,16,0,0,1,25.71,2.74H192.34l-6.78,43.43a16,16,0,0,1-15.88,13.65H3ZM25.71,0A18.71,18.71,0,0,0,7.14,15.84L6.29,20.92,0,61a1.35,1.35,0,0,0,.31,1.1,1.37,1.37,0,0,0,1,.48H169.67a18.71,18.71,0,0,0,18.57-15.85l7-45.14A1.37,1.37,0,0,0,193.94,0H25.71Z"/>
    </clipPath>
    <linearGradient id="Degradado_sin_nombre_2" x1="-206.12" y1="437" x2="-204.76" y2="437" gradientTransform="matrix(143.1, 0, 0, -143.1, 29496.82, 62567.53)" gradientUnits="userSpaceOnUse">
      <stop offset="0" stop-color="#345b83"/>
      <stop offset="0.43" stop-color="#4c796e"/>
      <stop offset="1" stop-color="#70a64f"/>
    </linearGradient>
  </defs>
  <title>logo-mimet</title>
  <circle class="cls-2" cx="175.03" cy="46.18" r="2.73"/>
  <path class="cls-3" d="M176.36,47.82l-1.06-1.58h0a0.93,0.93,0,0,0,1-.94,1.09,1.09,0,0,0-1.31-1.08,2.21,2.21,0,0,0-1,.2v3.41h0.65V46.2h0l1,1.61h0.73Zm-0.75-2.5a0.67,0.67,0,0,1-.75.75,0.94,0.94,0,0,1-.24,0v-1.4a0.75,0.75,0,0,1,.33-0.06,0.61,0.61,0,0,1,.67.73" transform="translate(0.06)"/>
  <path class="cls-4" d="M60.72,18.75L56.34,47a2.51,2.51,0,0,1-2.47,2.07H47.7a2.51,2.51,0,0,1-2.51-2.51,2.59,2.59,0,0,1,0-.31l3.93-25.91a1.32,1.32,0,0,0-2.6-.32l-4.14,26.9a2.51,2.51,0,0,1-2.49,2.16H33.56A2.51,2.51,0,0,1,31,46.56a2.48,2.48,0,0,1,0-.36L35,20.44V20.33a1.32,1.32,0,0,0-2.63-.16v0.06L28.31,46.9v0a2.51,2.51,0,0,1-2.48,2.12H19.61a2.51,2.51,0,0,1-2.49-2.87V46.15l4.47-29.2a4.08,4.08,0,0,1,4-3.44H56a4.71,4.71,0,0,1,4.71,4.71,5,5,0,0,1,0,.54" transform="translate(0.06)"/>
  <g class="cls-5">
    <rect class="cls-6" width="195.42" height="62.58"/>
  </g>
  <path class="cls-7" d="M117.51,18.22a4.71,4.71,0,0,0-4.71-4.71H82.38a4.07,4.07,0,0,0-4,3.44l-4.47,29.2V46.2a2.52,2.52,0,0,0,2.49,2.87h6.21a2.51,2.51,0,0,0,2.48-2.12v0l4.08-26.67V20.17a1.32,1.32,0,0,1,2.63.16v0.11L87.83,46.2a2.65,2.65,0,0,0,0,.36,2.51,2.51,0,0,0,2.52,2.51h6.34a2.51,2.51,0,0,0,2.49-2.16L103.29,20a1.32,1.32,0,0,1,2.6.32L102,46.25a2.37,2.37,0,0,0,0,.31,2.51,2.51,0,0,0,2.51,2.51h6.17A2.51,2.51,0,0,0,113.1,47l4.38-28.25a4.66,4.66,0,0,0,0-.54" transform="translate(0.06)"/>
  <path class="cls-8" d="M75.55,16.39a2.76,2.76,0,0,0,0-.37,2.51,2.51,0,0,0-2.51-2.51H66.72a2.51,2.51,0,0,0-2.48,2.1l-4.6,30.67a2.52,2.52,0,0,0,2.5,2.8h6.19A2.52,2.52,0,0,0,70.81,47l4.72-30.51V16.39Z" transform="translate(0.06)"/>
  <path class="cls-9" d="M141.71,13.5H124.4a3.9,3.9,0,0,0-3.86,3.37l-4.37,28.88a2.93,2.93,0,0,0,0,.48A2.84,2.84,0,0,0,119,49.07h19.32a2.84,2.84,0,0,0,2.81-2.44l1.57-10.14a2.71,2.71,0,0,0,0-.44,2.84,2.84,0,0,0-2.84-2.84h-6.59a1.88,1.88,0,0,0-1.85,1.55L130,43.94a1.32,1.32,0,0,1-2.62-.21l0-.22,2.08-13.08h11.68a2.84,2.84,0,0,0,2.8-2.38l1.62-10.11a3.63,3.63,0,0,0,0-.54,3.9,3.9,0,0,0-3.9-3.9m-8.94,12.57a1.32,1.32,0,0,1-2.62-.24V25.7L131,20.2a1.32,1.32,0,0,1,2.63.14Z" transform="translate(0.06)"/>
  <path class="cls-10" d="M158,22.29L158.64,18a4.16,4.16,0,0,0,.05-0.63,3.9,3.9,0,0,0-3.9-3.9h-3.11a3.9,3.9,0,0,0-3.86,3.37l-4.37,28.88a2.78,2.78,0,0,0,0,.48,2.84,2.84,0,0,0,2.84,2.84h19.32a2.84,2.84,0,0,0,2.81-2.44L170,36.5a2.87,2.87,0,0,0,0-.44,2.84,2.84,0,0,0-2.84-2.84h-6.59a1.89,1.89,0,0,0-1.85,1.55l-1.43,9.17a1.32,1.32,0,0,1-2.62-.21l0-.22,2.07-13.09h11.68a2.84,2.84,0,0,0,2.8-2.38l0.91-5.71Z" transform="translate(0.06)"/>
  <path class="cls-11" d="M43.24,82.64l2.12-9.09h1.43l1,6.24h0.05l3.22-6.24H52.5l-1.08,9.09H50.25L51,75.89H51l-2.87,5.59H46.94L46,75.89H46l-1.57,6.76H43.24Z" transform="translate(0.06)"/>
  <path class="cls-11" d="M53.57,82.33a2.09,2.09,0,0,1-.43-1.48,8.41,8.41,0,0,1,.16-1.45,6.73,6.73,0,0,1,.62-2,2.42,2.42,0,0,1,1-1A3.23,3.23,0,0,1,56.41,76a5,5,0,0,1,2,.39l-1.09,6.24h-1V82.25H56.29a2,2,0,0,1-.67.38,2.32,2.32,0,0,1-.78.14A1.69,1.69,0,0,1,53.57,82.33Zm2.3-.42a2.19,2.19,0,0,0,.45-0.18l0.87-4.94H56.28a1.35,1.35,0,0,0-1.12.57,4.92,4.92,0,0,0-.7,2,8,8,0,0,0-.14,1.27,1.55,1.55,0,0,0,.27,1,1,1,0,0,0,.77.3A1.85,1.85,0,0,0,55.87,81.92Zm0.27-6.55,0.75-1.69h1.24l-1.21,1.69H56.14Z" transform="translate(0.06)"/>
  <path class="cls-11" d="M59.44,82.7a5.59,5.59,0,0,1-.73-0.18L58.8,82h1.3a3,3,0,0,0,1.34-.23A1,1,0,0,0,62,81a1.31,1.31,0,0,0,0-.2,0.69,0.69,0,0,0-.26-0.58,4.64,4.64,0,0,0-.82-0.46,5.48,5.48,0,0,1-.75-0.38,1.64,1.64,0,0,1-.49-0.48,1.31,1.31,0,0,1-.2-0.75,2.23,2.23,0,0,1,0-.4,1.76,1.76,0,0,1,.78-1.32A3.66,3.66,0,0,1,62.13,76a4.48,4.48,0,0,1,.79.08,4.92,4.92,0,0,1,.73.18l-0.09.52h-1.3q-1.6,0-1.6,1.1a0.69,0.69,0,0,0,.26.58,4.43,4.43,0,0,0,.82.46,5.58,5.58,0,0,1,.75.38,1.62,1.62,0,0,1,.49.48,1.33,1.33,0,0,1,.2.75,2.79,2.79,0,0,1-.5,1.51,1.84,1.84,0,0,1-.92.55,5.9,5.9,0,0,1-1.53.16A4.31,4.31,0,0,1,59.44,82.7Z" transform="translate(0.06)"/>
  <path class="cls-11" d="M70.61,82.45a3.14,3.14,0,0,1-1.35.32A1.7,1.7,0,0,1,68,82.33a2.08,2.08,0,0,1-.43-1.48,8.41,8.41,0,0,1,.16-1.45,6.73,6.73,0,0,1,.62-2,2.42,2.42,0,0,1,1-1A3.23,3.23,0,0,1,70.83,76a5,5,0,0,1,2,.39l-1.56,8.83H70.12Zm-0.33-.53a2,2,0,0,0,.45-0.18l0.87-4.94H70.7a1.36,1.36,0,0,0-1.12.57,4.92,4.92,0,0,0-.69,2,7.83,7.83,0,0,0-.14,1.27,1.55,1.55,0,0,0,.27,1,1,1,0,0,0,.77.3A1.79,1.79,0,0,0,70.28,81.92Z" transform="translate(0.06)"/>
  <path class="cls-11" d="M74.14,82.47a1.19,1.19,0,0,1-.44-1.05,3.5,3.5,0,0,1,.05-0.6l0.83-4.68h1.17l-0.83,4.68a1.68,1.68,0,0,0,0,.32,0.74,0.74,0,0,0,.27.65A1.32,1.32,0,0,0,76,82a1.81,1.81,0,0,0,.51-0.08,2,2,0,0,0,.45-0.18l1-5.59h1.17l-1.14,6.5h-1V82.25H76.88a2,2,0,0,1-.68.38A2.66,2.66,0,0,1,74.14,82.47Z" transform="translate(0.06)"/>
  <path class="cls-11" d="M80.32,82.33a1.92,1.92,0,0,1-.54-1.55,8.53,8.53,0,0,1,.14-1.38,6.88,6.88,0,0,1,.61-2,2.45,2.45,0,0,1,1-1A2.93,2.93,0,0,1,82.91,76a2.23,2.23,0,0,1,1.46.42,1.44,1.44,0,0,1,.5,1.17,3.35,3.35,0,0,1-.05.49A2,2,0,0,1,84,79.46a3,3,0,0,1-1.81.45H81a4.89,4.89,0,0,0-.09.81,1.18,1.18,0,0,0,.37,1,1.88,1.88,0,0,0,1.16.29h1.3l-0.09.52a5.88,5.88,0,0,1-.78.18,4.83,4.83,0,0,1-.82.08A2.7,2.7,0,0,1,80.32,82.33Zm2-3.19a1.25,1.25,0,0,0,1-.37,1.42,1.42,0,0,0,.34-1A1.09,1.09,0,0,0,83.43,77a0.81,0.81,0,0,0-.64-0.28,1.25,1.25,0,0,0-1,.54,4.35,4.35,0,0,0-.65,1.86h1.23Z" transform="translate(0.06)"/>
  <path class="cls-11" d="M90.08,73.68a7.88,7.88,0,0,1,2.13-.26,3,3,0,0,1,1.85.44,1.8,1.8,0,0,1,.57,1.51,6.79,6.79,0,0,1-.11,1.17,5.25,5.25,0,0,1-.66,1.94,2.3,2.3,0,0,1-1.14.92l1,3.25h-1.3l-0.91-3H90.2l-0.52,3H88.51Zm1.18,5.07a1.85,1.85,0,0,0,1.38-.49,3.28,3.28,0,0,0,.7-1.72,5.74,5.74,0,0,0,.11-0.95,1.32,1.32,0,0,0-.34-1,1.55,1.55,0,0,0-1.05-.3H91.15l-0.79,4.48h0.91Z" transform="translate(0.06)"/>
  <path class="cls-11" d="M95.71,82.33a1.93,1.93,0,0,1-.54-1.55,8.28,8.28,0,0,1,.14-1.38,6.88,6.88,0,0,1,.61-2,2.43,2.43,0,0,1,1-1A2.92,2.92,0,0,1,98.31,76a2.23,2.23,0,0,1,1.46.42,1.43,1.43,0,0,1,.5,1.17,4,4,0,0,1-.05.49,2,2,0,0,1-.78,1.36,3,3,0,0,1-1.8.45H96.4a5.16,5.16,0,0,0-.09.81,1.18,1.18,0,0,0,.37,1,1.87,1.87,0,0,0,1.16.29h1.3L99,82.51a5.84,5.84,0,0,1-.78.18,4.78,4.78,0,0,1-.82.08A2.71,2.71,0,0,1,95.71,82.33Zm2-3.19a1.26,1.26,0,0,0,1-.37,1.42,1.42,0,0,0,.34-1A1.08,1.08,0,0,0,98.83,77a0.81,0.81,0,0,0-.64-0.28,1.25,1.25,0,0,0-1,.54,4.41,4.41,0,0,0-.66,1.86h1.24Z" transform="translate(0.06)"/>
  <path class="cls-11" d="M98.94,85.29a2.78,2.78,0,0,1-.66-0.18l0.09-.52h1.17a1,1,0,0,0,.69-0.32,2,2,0,0,0,.45-1.11l1.07-6H101l0.16-.84h0.78l0.09-.52a2.87,2.87,0,0,1,.78-1.74,2.15,2.15,0,0,1,1.43-.47,3.9,3.9,0,0,1,.72.08,3.78,3.78,0,0,1,.66.17l-0.09.52h-1.17a1,1,0,0,0-.69.32,2,2,0,0,0-.47,1.11l-0.09.52h1.82l-0.1.58A6.41,6.41,0,0,1,104,77a4.81,4.81,0,0,1-.82.08h-0.26l-1.07,6a2.91,2.91,0,0,1-.77,1.73,2.11,2.11,0,0,1-1.42.48A4.26,4.26,0,0,1,98.94,85.29Z" transform="translate(0.06)"/>
  <path class="cls-11" d="M105.89,76.15h1l0,0.52h0.07a2.77,2.77,0,0,1,1.7-.52h0.65l-0.18,1h-1.3a1.7,1.7,0,0,0-.95.26l-0.92,5.26h-1.17Z" transform="translate(0.06)"/>
  <path class="cls-11" d="M109.17,82.64l1.14-6.5h1.17l-1.14,6.5h-1.17Zm1.3-7.41,0.25-1.43h1.17l-0.25,1.43h-1.17Z" transform="translate(0.06)"/>
  <path class="cls-11" d="M112.56,85.29a4.81,4.81,0,0,1-.72-0.18l0.09-.52h1.3a1.87,1.87,0,0,0,1.38-.48,3.07,3.07,0,0,0,.69-1.67,3.14,3.14,0,0,1-1.35.32,1.69,1.69,0,0,1-1.27-.44,2.08,2.08,0,0,1-.43-1.48,8.64,8.64,0,0,1,.16-1.45,6.66,6.66,0,0,1,.62-2,2.41,2.41,0,0,1,1-1,3.24,3.24,0,0,1,1.51-.31,5,5,0,0,1,2,.39l-1,5.72a6.24,6.24,0,0,1-.62,1.94,2.39,2.39,0,0,1-1,1,3.5,3.5,0,0,1-1.55.31A4.35,4.35,0,0,1,112.56,85.29ZM115,81.92a2.09,2.09,0,0,0,.45-0.18l0.87-4.94h-0.91a1.36,1.36,0,0,0-1.12.57,5,5,0,0,0-.69,2,7.78,7.78,0,0,0-.14,1.27,1.54,1.54,0,0,0,.27,1,1,1,0,0,0,.77.3A1.82,1.82,0,0,0,115,81.92Z" transform="translate(0.06)"/>
  <path class="cls-11" d="M118.84,82.33a1.93,1.93,0,0,1-.54-1.55,8.28,8.28,0,0,1,.14-1.38,6.88,6.88,0,0,1,.61-2,2.43,2.43,0,0,1,1-1,2.92,2.92,0,0,1,1.42-.31,2.23,2.23,0,0,1,1.46.42,1.43,1.43,0,0,1,.5,1.17,4,4,0,0,1-.05.49,2,2,0,0,1-.78,1.36,3,3,0,0,1-1.8.45h-1.24a5.16,5.16,0,0,0-.09.81,1.18,1.18,0,0,0,.37,1A1.87,1.87,0,0,0,121,82h1.3l-0.09.52a5.84,5.84,0,0,1-.78.18,4.78,4.78,0,0,1-.82.08A2.71,2.71,0,0,1,118.84,82.33Zm2-3.19a1.26,1.26,0,0,0,1-.37,1.42,1.42,0,0,0,.34-1A1.08,1.08,0,0,0,122,77a0.81,0.81,0,0,0-.64-0.28,1.25,1.25,0,0,0-1,.54,4.41,4.41,0,0,0-.66,1.86h1.24Z" transform="translate(0.06)"/>
  <path class="cls-11" d="M124.86,76.15h1l0,0.52h0.06a2.79,2.79,0,0,1,1.7-.52h0.65l-0.18,1h-1.3a1.71,1.71,0,0,0-1,.26l-0.92,5.26h-1.17Z" transform="translate(0.06)"/>
  <path class="cls-11" d="M128.53,82.33a2.09,2.09,0,0,1-.43-1.48,8.19,8.19,0,0,1,.16-1.45,6.8,6.8,0,0,1,.62-2,2.44,2.44,0,0,1,1-1,3.23,3.23,0,0,1,1.51-.31,5,5,0,0,1,2,.39l-1.09,6.24h-1V82.25h-0.07a2,2,0,0,1-.67.38,2.31,2.31,0,0,1-.78.14A1.7,1.7,0,0,1,128.53,82.33Zm2.3-.42a2.09,2.09,0,0,0,.45-0.18l0.87-4.94h-0.91a1.35,1.35,0,0,0-1.12.57,4.89,4.89,0,0,0-.7,2,8.1,8.1,0,0,0-.14,1.27,1.56,1.56,0,0,0,.27,1,1,1,0,0,0,.78.3A1.82,1.82,0,0,0,130.84,81.92Z" transform="translate(0.06)"/>
  <path class="cls-11" d="M134.66,82.33a2,2,0,0,1-.5-1.53,7.65,7.65,0,0,1,.14-1.4,7,7,0,0,1,.61-2,2.45,2.45,0,0,1,1-1,2.92,2.92,0,0,1,1.41-.31,4.48,4.48,0,0,1,.79.08,4.85,4.85,0,0,1,.73.18l-0.09.52h-1.3a1.62,1.62,0,0,0-.88.23,1.85,1.85,0,0,0-.62.79,6.48,6.48,0,0,0-.45,1.58,6.81,6.81,0,0,0-.13,1.23,1.45,1.45,0,0,0,.31,1.07,1.37,1.37,0,0,0,1,.3h1.3l-0.09.52a5.84,5.84,0,0,1-.78.18,4.78,4.78,0,0,1-.82.08A2.35,2.35,0,0,1,134.66,82.33Z" transform="translate(0.06)"/>
  <path class="cls-11" d="M138.93,82.64l1.14-6.5h1.17l-1.14,6.5h-1.17Zm1.3-7.41,0.25-1.43h1.17l-0.25,1.43h-1.17Z" transform="translate(0.06)"/>
  <path class="cls-11" d="M142.57,82.3a2.12,2.12,0,0,1-.49-1.57,7.86,7.86,0,0,1,.14-1.34,5.13,5.13,0,0,1,1-2.6,2.53,2.53,0,0,1,1.94-.77,2,2,0,0,1,1.46.48,2.16,2.16,0,0,1,.49,1.59A7.47,7.47,0,0,1,147,79.4,5.11,5.11,0,0,1,146,82a2.55,2.55,0,0,1-1.95.77A2,2,0,0,1,142.57,82.3Zm2.58-.85a5.07,5.07,0,0,0,.71-2.05,7.11,7.11,0,0,0,.13-1.25c0-.94-0.3-1.42-0.9-1.42a1.27,1.27,0,0,0-1,.61,5,5,0,0,0-.7,2.05,7.25,7.25,0,0,0-.13,1.26c0,0.93.3,1.4,0.88,1.4A1.27,1.27,0,0,0,145.15,81.45Zm-0.28-6.08,0.76-1.69h1.23l-1.21,1.69h-0.78Z" transform="translate(0.06)"/>
  <path class="cls-11" d="M149.1,76.15h1v0.39h0.07a2.23,2.23,0,0,1,.68-0.38,2.64,2.64,0,0,1,2.07.16,1.19,1.19,0,0,1,.43,1.05,3.29,3.29,0,0,1-.05.6l-0.82,4.68h-1.17L152.09,78a1.68,1.68,0,0,0,0-.32,0.74,0.74,0,0,0-.27-0.65,1.33,1.33,0,0,0-.78-0.2,1.84,1.84,0,0,0-.51.08,2,2,0,0,0-.45.18l-1,5.59H148Z" transform="translate(0.06)"/>
  <path class="cls-1" d="M25.71,0A18.71,18.71,0,0,0,7.14,15.84L6.29,20.91,0,61a1.35,1.35,0,0,0,.31,1.1,1.37,1.37,0,0,0,1,.48H169.67a18.71,18.71,0,0,0,18.57-15.85l7-45.14A1.37,1.37,0,0,0,193.94,0H25.71Z" transform="translate(0.06)"/>
</svg>