<svg xmlns="http://www.w3.org/2000/svg" viewBox="0 0 372.56 425.56"><title>Caja</title><g id="Capa_2" data-name="Capa 2"><g id="Capa_1-2" data-name="Capa 1"><path d="M372.46,212.34V120.86c0-3.49-.1-7-.1-10.49a8.05,8.05,0,0,0-4.37-7.3c-2.58-1.53-5.19-3-7.79-4.5L199.28,5.65c-2.59-1.49-5.17-3-7.78-4.49a8.09,8.09,0,0,0-8.53.11c-2.59,1.5-5.17,3-7.77,4.52L14.3,98.73c-2.17,1.25-4.28,2.59-6.51,3.71-4,2-5.76,5.06-5.68,9.59.16,9.49,0,19,0,28.49q0,50.23,0,100.48c0,5.44,1,11-1.37,16.28A7.4,7.4,0,0,0,.82,263c.64,1.87.81,3.88,1.27,5.8,1.78,7.37-2.81,14.39-.9,21.9a33.8,33.8,0,0,1-.78,20.56C-1,315.12,1.64,318.1,4,320.51c2,2.07,4.92,3.33,7.51,4.83q83.69,48.38,167.37,96.71a7.8,7.8,0,0,1,1.28.78c5.05,4.34,9.65,2.92,15-.17,40.12-23.42,80.38-46.59,120.61-69.83,16.43-9.49,32.76-19.19,49.39-28.33,5.62-3.09,7.51-7,7.47-13.18C372.33,278.33,372.45,245.34,372.46,212.34Z" style="fill:#069"/><path d="M193.27,414.05c4.77-2.57,8.73-4.57,12.56-6.78q73.26-42.27,146.49-84.6c3-1.74,6.08-3.44,9.05-5.28a7.77,7.77,0,0,0,3.93-7.49c-.13-2.49,0-5,0-7.49q0-86.9,0-173.79c0-2.5,0-5-.09-7.49-.17-3.8-2.3-4.84-6.05-2.94-2.22,1.13-4.35,2.44-6.51,3.69L202.27,208.7c-1.73,1-3.37,2.17-5.17,3-4,1.91-6.12,4.85-5.73,9.45.16,2,0,4,0,6q0,87.64,0,175.29C191.41,405.84,190.65,409.38,193.27,414.05Z" style="fill:#fff"/><path d="M272.7,155.46c2.46.66,4.77.82,7.17-.57q38.11-22.11,76.29-44.17c.77-.44,1.15-1.55,1.78-2.47-.34-3.57-3.75-4.09-6-5.42Q275,58.23,198,13.82q-3.24-1.86-6.5-3.68a8.12,8.12,0,0,0-8.51.15c-3,1.73-6,3.5-9.05,5.23L105.22,54.88c-3.24,8.32,4,10.56,8.58,13.45,10.92,7,22.43,13,33.52,19.72,6.44,2.84,11.93,7.43,18.43,10.18,19.81,11.71,39.75,23.19,59.59,34.84,6.25,2.75,11.61,7.1,17.78,10C252.55,148.23,260.69,156.48,272.7,155.46Z" style="fill:#fff"/><path d="M95.59,60.37c-22.36,13.05-44.76,26-67.08,39.19-4.13,2.43-8.93,4-11.83,8.06.64,3.1,3.19,3.91,5.29,5.13q78.9,45.63,157.75,91.35c5.4,3.14,9.54,3.44,15,.15,20.07-12,40.44-23.57,60.73-35.25,4.31-2.47,8.75-4.7,13.13-7,5.22-4.34.58-6.57-2.26-8.18-7.54-4.28-14.91-8.85-22.41-13.18-6.6-2.7-11.88-7.78-18.51-10.45-20-11.62-40-23.37-60-35-6.57-2.64-11.79-7.69-18.4-10.28-11.84-6.79-23.44-14-35.34-20.64C106.85,61.58,102.13,56.65,95.59,60.37Z" style="fill:#fff"/><path d="M29.31,277.11c-.22,24.91-1.8,23.65,20.41,36.12,4.33,2.43,8.55,5.09,13,7.26,4.27,2.09,8.61-.09,8.75-4.63.33-10.92.42-21.87,0-32.78-.18-5.26-3.53-9.24-8-11.89-8.14-4.78-16.3-9.56-24.62-14-5.07-2.71-9.1-.53-9.49,5C29,267.14,29.31,272.13,29.31,277.11Z" style="fill:#fff"/><path d="M95.59,60.37c5.25.14,9.26,3.21,13.56,5.63q18.76,10.6,37.57,21.13c1.49-.54,3.2-.83,3.5-2.84-11.73-7-23.49-14-35.17-21.16-3.66-2.24-8.28-3.45-9.83-8.25C101.65,56.09,98.2,57.48,95.59,60.37Z" style="fill:#069"/><path d="M242,141.86c7.76,4.8,15.46,9.7,23.33,14.31a6.05,6.05,0,0,1,3.27,5.79c3.05-1.11,3.82-3.65,4.09-6.5-8.1-7.07-17.85-11.41-27.19-16.42C244,139.57,242.31,139.85,242,141.86Z" style="fill:#069"/><path d="M246.4,237.12c.44,1.62.83,3.57,1.5,5.43,2.14,5.92,7.27,8.49,13,6.55a22.94,22.94,0,0,0,4-2c10.34-6,20.73-11.82,31-17.94,9.41-5.63,13.47-14.32,13.23-25.06-.22-10.06-6.89-14.44-16-10.71a20.73,20.73,0,0,0-2.63,1.4c-9.91,5.71-19.84,11.38-29.72,17.14C251.27,217.46,247.65,226.4,246.4,237.12Z" style="fill:#069"/><path d="M164,96.86c19.59,12.85,40.12,24.07,60.66,35.29,1.48-.56,3.16-.86,3.47-2.85-19.59-12.82-40.1-24.06-60.64-35.26C166,94.56,164.34,94.85,164,96.86Z" style="fill:#069"/><path d="M228.17,129.3l-3.47,2.85c5.45,3.81,11,7.39,17.31,9.71l3.5-2.82C240.06,135.21,234.46,131.65,228.17,129.3Z" style="fill:#069"/><path d="M164,96.86,167.53,94c-5.45-3.82-11-7.4-17.31-9.75l-3.5,2.84C152.18,90.93,157.76,94.52,164,96.86Z" style="fill:#069"/><path d="M260.14,233.89a25.61,25.61,0,0,0-2.37,1.77c-1.06,1-2.48,2-1.86,3.66a2.48,2.48,0,0,0,3.52,1.43c11.63-6.5,23.35-12.87,34.65-19.91,5.29-3.3,7.15-9.28,7.79-15.39.21-2.08-.56-4-2.66-4.8s-3.74.59-4.71,2.4a32.21,32.21,0,0,0-1.56,4.15C283.14,217.49,267.15,220.17,260.14,233.89Z" style="fill:#fff"/><path d="M284.5,206.91c-5.38,3.18-10.73,6.39-16.15,9.51-4.19,2.41-8.26,4.94-11,9.11-.46,2.24.49,4.59,2.59,4.09,10.7-2.51,20.23-7.58,27.65-15.71C290.18,211.09,290,207.27,284.5,206.91Z" style="fill:#fff"/><path d="M284.5,206.91c1.46.66,2.61,2,2,3.33-1.06,2.13-2.42,4.5-4.32,5.72-6.59,4.23-13.41,8.12-20.28,11.88-2,1.1-3.66-.22-4.49-2.31C255,230,255,230,260.14,233.89c7.3-3.95,14.69-7.73,21.86-11.9,5.67-3.3,9.86-8,10.94-14.79C290.18,205.57,287.44,203.43,284.5,206.91Z" style="fill:#069"/></g></g></svg>